<svg xmlns="http://www.w3.org/2000/svg" version="1.1" xmlns:xlink="http://www.w3.org/1999/xlink" xmlns:svgjs="http://svgjs.com/svgjs" width="400" height="400"><svg xmlns="http://www.w3.org/2000/svg" version="1.1" xmlns:xlink="http://www.w3.org/1999/xlink" xmlns:svgjs="http://svgjs.com/svgjs" width="400" height="400">
  <circle cx="200" cy="200" r="200" fill="#404FD5"></circle>
  <path fill="#fff" d="M84.6 268v-22.6h18V154h-18v-22.6h70.2c8.3 0 15.6 1.4 21.7 4.3a32 32 0 0 1 19.7 30.2v2a30 30 0 0 1-3.6 15.4c-2.3 3.9-5 7-8.3 9.1a36 36 0 0 1-9 4.5v3.5c2.9.8 6 2.3 9.4 4.5 3.3 2 6.2 5.2 8.5 9.2 2.5 4 3.7 9.3 3.7 15.8v2a35 35 0 0 1-5.2 19.4 34 34 0 0 1-14.7 12.3 50.1 50.1 0 0 1-21.4 4.3h-71Zm43.7-23.4h24.2c5.6 0 10-1.4 13.4-4a14 14 0 0 0 5.3-11.8v-2c0-5-1.7-9-5-11.6-3.5-2.8-8-4.1-13.7-4.1h-24.2v33.5Zm0-57h23.8a20 20 0 0 0 13-4c3.6-2.8 5.3-6.5 5.3-11.3v-2c0-5-1.7-8.7-5-11.3a20.9 20.9 0 0 0-13.3-4.1h-23.8v32.8ZM242 268l-34.7-136.5h26.5l28.9 120h2.7l28.9-120h26.5L286.1 268h-44Z"></path>
</svg><style>@media (prefers-color-scheme: light) { :root { filter: none; } }
@media (prefers-color-scheme: dark) { :root { filter: contrast(1) brightness(1.2); } }
</style></svg>